<svg xmlns="http://www.w3.org/2000/svg" viewBox="0 0 600 600" role="img">
<defs><linearGradient id="gf" x1="0" y1="0" x2="0" y2="1"><stop offset="0" stop-color="#2B1D33"/><stop offset=".62" stop-color="#7E5F86"/><stop offset="1" stop-color="#C9ADDB"/></linearGradient></defs>
<rect width="600" height="600" fill="url(#gf)"/>
<path d="M0 470 L90 410 L170 450 L270 360 L360 440 L450 380 L540 440 L600 410 V600 H0Z" fill="#A99FB3" opacity=".38"/>
<path d="M0 520 L120 470 L210 510 L330 440 L430 505 L520 465 L600 500 V600 H0Z" fill="#2B1D33" opacity=".78"/>
<circle cx="300" cy="260" r="150" fill="#FFFFFF" opacity=".08"/><path d="M120 505 H480" stroke="#FFFFFF" stroke-width="12" stroke-linecap="round" opacity=".55"/><circle cx="228" cy="200" r="24" fill="#FFFFFF"/><path d="M238 228 L292 360" fill="none" stroke="#FFFFFF" stroke-width="15" stroke-linecap="round" stroke-linejoin="round" /><path d="M296 360 L410 250" fill="none" stroke="#FFFFFF" stroke-width="15" stroke-linecap="round" stroke-linejoin="round" /><path d="M246 252 L370 236" fill="none" stroke="#FFFFFF" stroke-width="13" stroke-linecap="round" stroke-linejoin="round" /><path d="M250 250 q60 -30 120 -14" fill="none" stroke="#C9ADDB" stroke-width="5" stroke-dasharray="2 10" stroke-linecap="round"/></svg>